<?xml version="1.0" encoding="utf-8"?>
<!-- Generator: Adobe Illustrator 16.0.0, SVG Export Plug-In . SVG Version: 6.00 Build 0)  -->
<!DOCTYPE svg PUBLIC "-//W3C//DTD SVG 1.1//EN" "http://www.w3.org/Graphics/SVG/1.1/DTD/svg11.dtd">
<svg version="1.1" id="Layer_1" xmlns="http://www.w3.org/2000/svg" xmlns:xlink="http://www.w3.org/1999/xlink" x="0px" y="0px"
	 width="58.5px" height="103.5px" viewBox="0 0 58.5 103.5" enable-background="new 0 0 58.5 103.5" xml:space="preserve">
<g>
	<path fill="#6313DC" d="M17.606,9.101c0,0,1-3,3.75-3.5h16.25c0,0,2.25,1,2.75,3.5v19.083c0,0,10.75,11.917,11.5,17.417v46
		c0,0,0.375,5.5-5.625,6.75H11.856c0,0-5.25-2.667-5.25-6.916c0,0,0-43.021,0-45.834s8.093-13.346,10.5-17.544L17.606,9.101z"/>
	<path fill="#FBFFFD" d="M26.606,14.726h5.125v14.125c0,0,1.625,8,10.875,15.75v3h-27.25v-2.969c0,0,10.313-9.969,11.188-15.656
		L26.606,14.726z"/>
	<rect x="15.356" y="56.435" fill="#FBFFFD" width="27.25" height="14.333"/>
	<rect x="15.356" y="79.789" fill="#FBFFFD" width="27.25" height="9.813"/>
</g>
</svg>
