<?xml version="1.0" encoding="utf-8"?>
<!-- Generator: Adobe Illustrator 16.0.0, SVG Export Plug-In . SVG Version: 6.00 Build 0)  -->
<!DOCTYPE svg PUBLIC "-//W3C//DTD SVG 1.1//EN" "http://www.w3.org/Graphics/SVG/1.1/DTD/svg11.dtd">
<svg version="1.1" id="Layer_1" xmlns="http://www.w3.org/2000/svg" xmlns:xlink="http://www.w3.org/1999/xlink" x="0px" y="0px"
	 width="70px" height="69.969px" viewBox="0 0 70 69.969" enable-background="new 0 0 70 69.969" xml:space="preserve">
<g>
	<path fill="#04DF07" d="M58.946,45.899c-4.13,8.55-12.88,14.44-23.01,14.44c-14.13,0-25.57-11.45-25.57-25.57
		s11.44-25.561,25.57-25.561c7.88,0,14.93,3.57,19.62,9.171h5.94c-5.391-8.41-14.83-13.98-25.561-13.98
		c-16.779,0-30.38,13.6-30.38,30.37c0,16.78,13.601,30.38,30.38,30.38c12.84,0,23.83-7.98,28.26-19.25H58.946z"/>
	<path fill="#FFFFFF" d="M58.946,45.899c-4.13,8.55-12.88,14.44-23.01,14.44c-14.13,0-25.57-11.45-25.57-25.57
		s11.44-25.561,25.57-25.561c7.88,0,14.93,3.57,19.62,9.171h-10v27.52H58.946z"/>
	<polygon fill="#04DF07" points="60.581,7.958 63.512,16.306 66.444,24.652 57.75,23.019 49.055,21.384 54.817,14.671 	"/>
	<g>
		<path fill="#04DF07" d="M31.596,19.803c0,0,0.35-1.047,1.31-1.222h5.674c0,0,0.786,0.349,0.96,1.222v6.663
			c0,0,3.754,4.162,4.016,6.082V48.61c0,0,0.131,1.92-1.964,2.356H29.588c0,0-1.832-0.932-1.832-2.415c0,0,0-15.021,0-16.003
			s2.824-4.66,3.666-6.127L31.596,19.803z"/>
		<path fill="#FBFFFD" d="M34.739,21.768h1.79V26.7c0,0,0.567,2.793,3.797,5.499v1.048h-9.515v-1.037c0,0,3.601-3.479,3.906-5.466
			L34.739,21.768z"/>
		<rect x="30.811" y="36.332" fill="#FBFFFD" width="9.515" height="5.004"/>
		<rect x="30.811" y="44.486" fill="#FBFFFD" width="9.515" height="3.425"/>
	</g>
</g>
</svg>
